<svg width="109" height="20" viewBox="0 0 109 20" fill="none" xmlns="http://www.w3.org/2000/svg">
<path d="M64.0648 11.7483C63.5959 11.1533 63.7301 10.8886 64.0648 10.3567C64.0708 10.3506 67.9413 4.97621 68.34 3.15357L68.3424 3.15236C68.5406 2.48814 68.3424 2 67.3842 2H64.2134C63.4062 2 63.034 2.41893 62.8347 2.88764C62.8347 2.88764 61.2203 6.77093 58.9364 9.28814C58.1993 10.0155 57.8586 10.2486 57.4562 10.2486C57.258 10.2486 56.9499 10.0155 56.9499 9.35129V3.15236C56.9499 2.35579 56.7239 2 56.0557 2H51.0699C50.5636 2 50.2627 2.37157 50.2627 2.71764C50.2627 3.47293 51.4046 3.64657 51.5231 5.77157V10.3822C51.5231 11.3925 51.3406 11.5783 50.9358 11.5783C49.8579 11.5783 47.2418 7.67921 45.6914 3.21671C45.3785 2.35093 45.0728 2.00121 44.2595 2.00121H41.0875C40.1825 2.00121 40 2.42014 40 2.88886C40 3.717 41.0779 7.83464 45.0123 13.2746C47.6345 16.9879 51.3273 19 54.6866 19C56.7058 19 56.9523 18.5531 56.9523 17.7845C56.9523 14.2364 56.7698 13.9012 57.7812 13.9012C58.2501 13.9012 59.0573 14.1344 60.9424 15.9254C63.0969 18.0492 63.4509 19 64.6569 19H67.8277C68.7315 19 69.1895 18.5531 68.9261 17.6716C68.3231 15.8174 64.2485 12.0033 64.0648 11.7483Z" fill="#BFBFC7"/>
<path d="M14.5862 0H5.41382C2.42859 0 0 2.42859 0 5.41382V14.5863C0 17.5714 2.42859 20 5.41382 20H14.5863C17.5714 20 20 17.5714 20 14.5863V5.41382C20 2.42859 17.5714 0 14.5862 0V0ZM10 15.4686C6.98456 15.4686 4.5314 13.0154 4.5314 10C4.5314 6.98456 6.98456 4.5314 10 4.5314C13.0154 4.5314 15.4686 6.98456 15.4686 10C15.4686 13.0154 13.0154 15.4686 10 15.4686ZM15.5994 5.82108C14.7083 5.82108 13.9835 5.09628 13.9835 4.20517C13.9835 3.31406 14.7083 2.58911 15.5994 2.58911C16.4905 2.58911 17.2154 3.31406 17.2154 4.20517C17.2154 5.09628 16.4905 5.82108 15.5994 5.82108Z" fill="#BFBFC7"/>
<path d="M9.99956 6.6666C8.16165 6.6666 6.66626 8.16187 6.66626 9.99989C6.66626 11.8378 8.16165 13.3332 9.99956 13.3332C11.8376 13.3332 13.3329 11.8378 13.3329 9.99989C13.3329 8.16187 11.8376 6.6666 9.99956 6.6666Z" fill="#BFBFC7"/>
<path d="M15.5992 3.76157C15.3547 3.76157 15.1558 3.96054 15.1558 4.20499C15.1558 4.44943 15.3547 4.64841 15.5992 4.64841C15.8438 4.64841 16.0428 4.44958 16.0428 4.20499C16.0428 3.96039 15.8438 3.76157 15.5992 3.76157Z" fill="#BFBFC7"/>
<path d="M108.995 20V19.9992H109V12.7841C109 9.25439 108.233 6.5354 104.065 6.5354C102.061 6.5354 100.716 7.62398 100.168 8.656H100.11V6.86493H96.1577V19.9992H100.273V13.4956C100.273 11.7832 100.601 10.1274 102.742 10.1274C104.853 10.1274 104.884 12.0816 104.884 13.6054V20H108.995Z" fill="#BFBFC7"/>
<path d="M89.3279 6.86499H93.4478V19.9993H89.3279V6.86499Z" fill="#BFBFC7"/>
<path d="M91.3862 0C90.0689 0 89 1.05825 89 2.36241C89 3.66658 90.0689 4.74696 91.3862 4.74696C92.7034 4.74696 93.7723 3.66658 93.7723 2.36241C93.7715 1.05825 92.7026 0 91.3862 0V0Z" fill="#BFBFC7"/>
</svg>
